<svg width="260.80500488281245px" height="122.021240234375px" xmlns="http://www.w3.org/2000/svg" viewBox="119.59749755859377 13.9893798828125 260.80500488281245 122.021240234375" style="background: rgba(242, 237, 219, 0);" preserveAspectRatio="xMidYMid"><defs><filter id="editing-vintage" x="-100%" y="-100%" width="300%" height="300%"><feConvolveMatrix in="SourceGraphic" result="extrude" order="9,9" divisor="1" kernelMatrix="1,0,0,0,0,0,0,0,0,0,1,0,0,0,0,0,0,0,0,0,1,0,0,0,0,0,0,0,0,0,1,0,0,0,0,0,0,0,0,0,1,0,0,0,0,0,0,0,0,0,1,0,0,0,0,0,0,0,0,0,1,0,0,0,0,0,0,0,0,0,1,0,0,0,0,0,0,0,0,0,1"> </feConvolveMatrix><feFlood flood-color="#900" result="flood-extrude"></feFlood><feComposite operator="in" in="flood-extrude" in2="extrude" result="extrude-color"></feComposite><feOffset dx="5" dy="5" in="extrude-color" result="extrude-offset"></feOffset><feColorMatrix in="SourceGraphic" result="stroke" type="matrix" values="0 0 0 0 0 0 0 0 0 0 0 0 0 0 0 0 1 0 0 0 "></feColorMatrix><feColorMatrix in="SourceGraphic" result="fill" type="matrix" values="0 0 0 0 0 0 0 0 0 0 0 0 0 0 0 1 0 0 1 0 "></feColorMatrix><feConvolveMatrix in="stroke" result="inner-shadow" order="5,5" divisor="1" kernelMatrix="1 0 0 0 0 0 1 0 0 0 0 0 1 0 0 0 0 0 1 0 0 0 0 0 1 "></feConvolveMatrix><feOffset dx="1" dy="1" in="inner-shadow" result="offset"></feOffset><feComposite operator="in" in="offset" in2="SourceAlpha" result="comp"></feComposite><feFlood flood-color="#000" result="flood3"></feFlood><feComposite operator="in" in="flood3" in2="comp" result="comp2"></feComposite><feColorMatrix in="comp2" result="comp3" type="matrix" values="1 0 0 0 0 0 1 0 0 0 0 0 1 0 0 0 0 0 0.5 0 "></feColorMatrix><feFlood flood-color="#f00" result="flood1"></feFlood><feComposite operator="in" in="flood1" in2="fill" result="fill2"></feComposite><feFlood flood-color="#fff" result="flood2"></feFlood><feComposite operator="in" in="flood2" in2="stroke" result="stroke2"></feComposite><feMerge result="obj"><feMergeNode in="extrude-offset"></feMergeNode><feMergeNode in="fill2"></feMergeNode><feMergeNode in="comp3"></feMergeNode></feMerge><feConvolveMatrix in="SourceAlpha" result="shadow" order="9,9" divisor="1" kernelMatrix="1,0,0,0,0,0,0,0,0,0,1,0,0,0,0,0,0,0,0,0,1,0,0,0,0,0,0,0,0,0,1,0,0,0,0,0,0,0,0,0,1,0,0,0,0,0,0,0,0,0,1,0,0,0,0,0,0,0,0,0,1,0,0,0,0,0,0,0,0,0,1,0,0,0,0,0,0,0,0,0,1"></feConvolveMatrix><feOffset dx="15" dy="15" in="shadow" result="shadow-offset"></feOffset><feFlood flood-color="#444444" result="flood-shadow"></feFlood><feComposite operator="in" in="flood-shadow" in2="shadow-offset" result="shadow-color"></feComposite><feMerge><feMergeNode in="shadow-color"></feMergeNode><feMergeNode in="obj"></feMergeNode></feMerge></filter></defs><g transform="translate(-9,-9)"><g filter="url(#editing-vintage)"><g transform="translate(166.0393795967102, 102.19218826293945)"><path d="M-6.98 8.83L-6.98 8.83L-6.98 8.83Q-3.71 8.45-1.66 4.22L-1.66 4.22L-1.66 4.22Q0.45-0.06 2.37-9.92L2.37-9.92L8.58-42.24L22.46-42.24L16.26-9.92L16.26-9.92Q13.89 2.62 9.98 7.55L9.98 7.55L9.98 7.55Q7.94 10.11 5.34 11.14L5.34 11.14L5.34 11.14Q2.75 12.16-0.06 12.16L-0.06 12.16L-0.06 12.16Q-2.88 12.16-4.70 11.14L-4.70 11.14L-4.70 11.14Q-6.53 10.11-6.98 8.83ZM47.74-4.80L47.74-4.80L47.74-4.80Q47.74-9.28 49.54-18.24L49.54-18.24L40.06-18.24L36.54 0L23.17 0L31.30-42.24L44.80-42.24L41.09-23.36L50.56-23.36L54.08-42.24L67.58-42.24L67.58-42.24Q66.69-37.50 65.54-32.19L65.54-32.19L63.36-21.76L63.36-21.76Q60.93-9.60 60.93-4.29L60.93-4.29L60.93-4.29Q60.93-2.11 61.63-0.90L61.63-0.90L61.63-0.90Q58.43 1.28 54.69 1.28L54.69 1.28L54.69 1.28Q50.94 1.28 49.34-0.51L49.34-0.51L49.34-0.51Q47.74-2.30 47.74-4.80ZM70.34-9.47L70.34-9.47L70.34-9.47Q70.34-11.97 70.98-15.17L70.98-15.17L76.16-42.24L90.30-42.24L85.18-14.98L85.18-14.98Q84.61-11.97 84.61-9.76L84.61-9.76L84.61-9.76Q84.61-7.55 85.54-6.40L85.54-6.40L85.54-6.40Q86.46-5.25 88.19-5.25L88.19-5.25L88.19-5.25Q89.92-5.25 91.01-5.70L91.01-5.70L91.01-5.70Q92.10-6.14 92.99-7.23L92.99-7.23L92.99-7.23Q94.72-9.41 95.81-14.98L95.81-14.98L100.99-42.24L110.66-42.24L105.54-15.04L105.54-15.04Q103.74-5.95 98.82-2.30L98.82-2.30L98.82-2.30Q94.02 1.28 84.54 1.28L84.54 1.28L84.54 1.28Q77.44 1.28 73.66-1.79L73.66-1.79L73.66-1.79Q70.34-4.48 70.34-9.47ZM139.26-9.86L139.26-9.86L139.26-9.86Q140.48-8.32 140.48-5.82L140.48-5.82L140.48-5.82Q140.48-2.37 137.92-0.54L137.92-0.54L137.92-0.54Q135.36 1.28 131.33 1.28L131.33 1.28L131.33 1.28Q129.02 1.28 125.50 0.77L125.50 0.77L125.50 0.77Q118.59-0.32 116.48-0.32L116.48-0.32L116.48-0.32Q114.37-0.32 113.54-0.22L113.54-0.22L113.54-0.22Q112.70-0.13 111.36 0L111.36 0L119.23-42.24L146.82-42.24L146.82-42.24Q146.82-38.34 144.93-36.29L144.93-36.29L144.93-36.29Q143.04-34.24 139.33-34.24L139.33-34.24L139.33-34.24Q135.62-34.24 131.84-35.97L131.84-35.97L129.86-24.77L141.25-24.77L141.25-24.77Q141.25-21.38 139.58-19.49L139.58-19.49L139.58-19.49Q137.92-17.60 135.14-17.60L135.14-17.60L135.14-17.60Q132.35-17.60 130.62-18.24L130.62-18.24L130.62-18.24Q128.90-18.88 128.70-19.07L128.70-19.07L126.40-6.98L126.40-6.98Q127.94-6.78 130.82-6.78L130.82-6.78L130.82-6.78Q135.74-6.78 139.26-9.86ZM159.62 0L145.66 0L153.79-42.24L167.87-42.24L159.62 0Z" fill="#f00" stroke="#0f0" stroke-width="1.8"></path></g></g><g><g transform="translate(165.6018795967102, 102.20000076293945)"><path d="M-6.98 8.83L-6.98 8.83L-6.98 8.83Q-3.71 8.45-1.66 4.22L-1.66 4.22L-1.66 4.22Q0.45-0.06 2.37-9.92L2.37-9.92L8.58-42.24L22.46-42.24L16.26-9.92L16.26-9.92Q13.89 2.62 9.98 7.55L9.98 7.55L9.98 7.55Q7.94 10.11 5.34 11.14L5.34 11.14L5.34 11.14Q2.75 12.16-0.06 12.16L-0.06 12.16L-0.06 12.16Q-2.88 12.16-4.70 11.14L-4.70 11.14L-4.70 11.14Q-6.53 10.11-6.98 8.83ZM47.74-4.80L47.74-4.80L47.74-4.80Q47.74-9.28 49.54-18.24L49.54-18.24L40.06-18.24L36.54 0L23.17 0L31.30-42.24L44.80-42.24L41.09-23.36L50.56-23.36L54.08-42.24L67.58-42.24L67.58-42.24Q66.69-37.50 65.54-32.19L65.54-32.19L63.36-21.76L63.36-21.76Q60.93-9.60 60.93-4.29L60.93-4.29L60.93-4.29Q60.93-2.11 61.63-0.90L61.63-0.90L61.63-0.90Q58.43 1.28 54.69 1.28L54.69 1.28L54.69 1.28Q50.94 1.28 49.34-0.51L49.34-0.51L49.34-0.51Q47.74-2.30 47.74-4.80ZM70.34-9.47L70.34-9.47L70.34-9.47Q70.34-11.97 70.98-15.17L70.98-15.17L76.16-42.24L90.30-42.24L85.18-14.98L85.18-14.98Q84.61-11.97 84.61-9.76L84.61-9.76L84.61-9.76Q84.61-7.55 85.54-6.40L85.54-6.40L85.54-6.40Q86.46-5.25 88.19-5.25L88.19-5.25L88.19-5.25Q89.92-5.25 91.01-5.70L91.01-5.70L91.01-5.70Q92.10-6.14 92.99-7.23L92.99-7.23L92.99-7.23Q94.72-9.41 95.81-14.98L95.81-14.98L100.99-42.24L110.66-42.24L105.54-15.04L105.54-15.04Q103.74-5.95 98.82-2.30L98.82-2.30L98.82-2.30Q94.02 1.28 84.54 1.28L84.54 1.28L84.54 1.28Q77.44 1.28 73.66-1.79L73.66-1.79L73.66-1.79Q70.34-4.48 70.34-9.47ZM139.26-9.86L139.26-9.86L139.26-9.86Q140.48-8.32 140.48-5.82L140.48-5.82L140.48-5.82Q140.48-2.37 137.92-0.54L137.92-0.54L137.92-0.54Q135.36 1.28 131.33 1.28L131.33 1.28L131.33 1.28Q129.02 1.28 125.50 0.77L125.50 0.77L125.50 0.77Q118.59-0.32 116.48-0.32L116.48-0.32L116.48-0.32Q114.37-0.32 113.54-0.22L113.54-0.22L113.54-0.22Q112.70-0.13 111.36 0L111.36 0L119.23-42.24L146.82-42.24L146.82-42.24Q146.82-38.34 144.93-36.29L144.93-36.29L144.93-36.29Q143.04-34.24 139.33-34.24L139.33-34.24L139.33-34.24Q135.62-34.24 131.84-35.97L131.84-35.97L129.86-24.77L141.25-24.77L141.25-24.77Q141.25-21.38 139.58-19.49L139.58-19.49L139.58-19.49Q137.92-17.60 135.14-17.60L135.14-17.60L135.14-17.60Q132.35-17.60 130.62-18.24L130.62-18.24L130.62-18.24Q128.90-18.88 128.70-19.07L128.70-19.07L126.40-6.98L126.40-6.98Q127.94-6.78 130.82-6.78L130.82-6.78L130.82-6.78Q135.74-6.78 139.26-9.86ZM159.62 0L145.66 0L153.79-42.24L167.87-42.24L159.62 0Z" fill="none" stroke="#fff" stroke-width="2.1"></path></g></g></g><style>text {
  font-size: 64px;
  font-family: Arial Black;
  dominant-baseline: central;
  text-anchor: middle;
}</style></svg>